<svg width="24" height="24" viewBox="0 0 24 24" fill="none" xmlns="http://www.w3.org/2000/svg">
<path d="M4.5 4C3.95 4 3.5 4.18 3.09 4.57C2.7 4.96 2.5 5.44 2.5 6V18C2.5 18.56 2.7 19.04 3.09 19.43C3.5 19.82 3.95 20 4.5 20H18.5C19 20 19.5 19.81 19.89 19.41C20.3 19 20.5 18.53 20.5 18V6C20.5 5.47 20.3 5 19.89 4.59C19.5 4.19 19 4 18.5 4H4.5ZM4 5.5H19V18.5H4V5.5ZM6.5 9C6.2 9 5.97 9.09 5.78 9.28C5.59 9.47 5.5 9.7 5.5 10V14C5.5 14.3 5.59 14.53 5.78 14.72C5.97 14.91 6.2 15 6.5 15H9.5C9.77 15 10 14.91 10.21 14.72C10.41 14.53 10.5 14.3 10.5 14V13H9V13.5H7V10.5H9V11H10.5V10C10.5 9.7 10.41 9.47 10.21 9.28C10 9.09 9.77 9 9.5 9H6.5ZM13.5 9C13.23 9 13 9.09 12.79 9.28C12.59 9.47 12.5 9.7 12.5 10V14C12.5 14.3 12.59 14.53 12.79 14.72C13 14.91 13.23 15 13.5 15H16.5C16.8 15 17.03 14.91 17.22 14.72C17.41 14.53 17.5 14.3 17.5 14V13H16V13.5H14V10.5H16V11H17.5V10C17.5 9.7 17.41 9.47 17.22 9.28C17.03 9.09 16.8 9 16.5 9H13.5Z" fill="white"/>
<path d="M1.5 2L22.5 22" stroke="white" stroke-width="2"/>
</svg>
